<svg width="19" height="18" viewBox="0 0 19 18" fill="none" xmlns="http://www.w3.org/2000/svg">
<path d="M9.02447 1.08156C9.17415 0.620904 9.82585 0.620904 9.97553 1.08156L11.3819 5.40983C11.5827 6.02786 12.1586 6.4463 12.8085 6.4463H17.3595C17.8438 6.4463 18.0452 7.06611 17.6534 7.35081L13.9715 10.0258C13.4458 10.4078 13.2258 11.0848 13.4266 11.7029L14.8329 16.0312C14.9826 16.4918 14.4554 16.8749 14.0635 16.5902L10.3817 13.9151C9.85594 13.5332 9.14405 13.5332 8.61832 13.9152L4.93648 16.5902C4.54462 16.8749 4.01738 16.4918 4.16705 16.0312L5.57339 11.7029C5.77421 11.0848 5.55422 10.4078 5.02849 10.0258L1.34664 7.35081C0.954784 7.06611 1.15617 6.4463 1.64053 6.4463H6.19155C6.84138 6.4463 7.41732 6.02786 7.61813 5.40983L9.02447 1.08156Z" stroke="black"/>
</svg>
